<?xml version="1.0" encoding="UTF-8"?>
<svg width="239px" height="58px" viewBox="0 0 239 58" version="1.1" xmlns="http://www.w3.org/2000/svg" xmlns:xlink="http://www.w3.org/1999/xlink">
    <!-- Generator: Sketch 52.6 (67491) - http://www.bohemiancoding.com/sketch -->
    <title>Artboard</title>
    <desc>Created with Sketch.</desc>
    <defs>
        <path d="M40.015,22.91 C46.799,22.91 51.251,26.832 51.251,34.835 L51.251,51 L47.488,51 L47.488,35.206 C47.488,29.323 44.52,26.302 39.485,26.302 C33.761,26.302 30.157,30.012 30.157,36.372 L30.157,51 L26.394,51 L26.394,35.206 C26.394,29.323 23.426,26.302 18.338,26.302 C12.667,26.302 9.01,30.012 9.01,36.372 L9.01,51 L5.247,51 L5.247,23.122 L8.851,23.122 L8.851,28.21 C10.812,24.871 14.416,22.91 19.08,22.91 C23.691,22.91 27.295,24.871 28.991,28.793 C31.005,25.189 34.98,22.91 40.015,22.91 Z M85.2691903,37.061 C85.2691903,37.379 85.2161903,37.803 85.2161903,38.227 L61.8961903,38.227 C62.3201903,44.057 66.7721903,47.926 72.8671903,47.926 C76.2591903,47.926 79.2801903,46.707 81.4001903,44.269 L83.5201903,46.707 C81.0291903,49.675 77.1601903,51.265 72.7611903,51.265 C64.0691903,51.265 58.1331903,45.329 58.1331903,37.061 C58.1331903,28.793 63.9101903,22.91 71.7541903,22.91 C79.5981903,22.91 85.2691903,28.687 85.2691903,37.061 Z M71.7541903,26.143 C66.3481903,26.143 62.3731903,29.959 61.8961903,35.418 L81.6651903,35.418 C81.1881903,29.959 77.2131903,26.143 71.7541903,26.143 Z M103.864381,51.265 C95.5433806,51.265 89.5013806,45.382 89.5013806,37.061 C89.5013806,28.74 95.5433806,22.91 103.864381,22.91 C108.581381,22.91 112.556381,24.765 114.782381,28.422 L111.973381,30.33 C110.065381,27.521 107.097381,26.196 103.864381,26.196 C97.7693806,26.196 93.3173806,30.542 93.3173806,37.061 C93.3173806,43.633 97.7693806,47.926 103.864381,47.926 C107.097381,47.926 110.065381,46.654 111.973381,43.845 L114.782381,45.753 C112.556381,49.357 108.581381,51.265 103.864381,51.265 Z M142.652571,51 L131.416571,37.008 L124.844571,43.05 L124.844571,51 L121.081571,51 L121.081571,11.674 L124.844571,11.674 L124.844571,38.333 L141.486571,23.122 L146.150571,23.122 L134.225571,34.517 L147.263571,51 L142.652571,51 Z M173.119761,23.122 L176.882761,23.122 L176.882761,51 L173.278761,51 L173.278761,45.912 C171.317761,49.304 167.713761,51.265 163.261761,51.265 C156.159761,51.265 151.495761,47.29 151.495761,39.287 L151.495761,23.122 L155.258761,23.122 L155.258761,38.916 C155.258761,44.852 158.332761,47.873 163.632761,47.873 C169.462761,47.873 173.119761,44.11 173.119761,37.75 L173.119761,23.122 Z" id="path-1"></path>
    </defs>
    <g id="Artboard" stroke="none" stroke-width="1" fill="none" fill-rule="evenodd">
        <g id="circuit" fill="#4A90E2" fill-rule="nonzero">
            <path d="M22.1355393,15 C20.8927776,15 19.8428253,15.839 19.4476615,17 L9.55138403,17 C9.15622017,15.839 8.1062679,15 6.8635062,15 C5.28475978,15 4,16.346 4,18 C4,19.654 5.28475978,21 6.8635062,21 C8.1062679,21 9.15622017,20.161 9.55138403,19 L19.448616,19 C19.8437798,20.161 20.8937321,21 22.1364938,21 C23.7152402,21 25,19.654 25,18 C25,16.346 23.7142857,15 22.1355393,15 Z M6.8635062,19 C6.33757556,19 5.90900414,18.552 5.90900414,18 C5.90900414,17.448 6.33757556,17 6.8635062,17 C7.38943684,17 7.81800827,17.448 7.81800827,18 C7.81800827,18.552 7.38943684,19 6.8635062,19 Z M22.1355393,19 C21.6096087,19 21.1810372,18.552 21.1810372,18 C21.1810372,17.448 21.6096087,17 22.1355393,17 C22.6614699,17 23.0900414,17.448 23.0900414,18 C23.0900414,18.552 22.6614699,19 22.1355393,19 Z" id="Shape"></path>
            <path d="M30,21.4901053 L30,15.6315789 C30,15.3795789 29.895,15.1389474 29.707,14.9617895 L25.707,11.1723158 C25.52,10.9942105 25.265,10.8947368 25,10.8947368 L21.816,10.8947368 C21.402,9.79484211 20.302,9 19,9 C17.346,9 16,10.2751579 16,11.8421053 C16,13.4090526 17.346,14.6842105 19,14.6842105 C20.302,14.6842105 21.402,13.8893684 21.816,12.7894737 L24.586,12.7894737 L28,16.0237895 L28,21.4901053 C26.839,21.8823158 26,22.9244211 26,24.1578947 C26,25.7248421 27.346,27 29,27 C30.654,27 32,25.7248421 32,24.1578947 C32,22.9244211 31.161,21.8823158 30,21.4901053 Z M19,12.7894737 C18.449,12.7894737 18,12.3650526 18,11.8421053 C18,11.3191579 18.449,10.8947368 19,10.8947368 C19.551,10.8947368 20,11.3191579 20,11.8421053 C20,12.3650526 19.551,12.7894737 19,12.7894737 Z M29,25.1052632 C28.449,25.1052632 28,24.6808421 28,24.1578947 C28,23.6349474 28.449,23.2105263 29,23.2105263 C29.551,23.2105263 30,23.6349474 30,24.1578947 C30,24.6808421 29.551,25.1052632 29,25.1052632 Z" id="Shape"></path>
            <path d="M47.1363636,25.1875 C46.6953636,25.1875 46.283,25.2969687 45.9097727,25.4790937 L44.2727273,23.8176875 L44.2727273,14.53125 C44.2727273,14.2735625 44.1725,14.0275 43.9930455,13.8463437 L34.4399545,4.15109375 C34.6194091,3.7723125 34.7272727,3.3538125 34.7272727,2.90625 C34.7272727,1.3039375 33.4424545,0 31.8636364,0 C30.2848182,0 29,1.3039375 29,2.90625 C29,4.5085625 30.2848182,5.8125 31.8636364,5.8125 C32.3046364,5.8125 32.717,5.70303125 33.0902273,5.52090625 L42.3636364,14.9323125 L42.3636364,24.21875 C42.3636364,24.4764375 42.4638636,24.7225 42.6433182,24.9036563 L44.5600455,26.8489062 C44.3805909,27.2276875 44.2727273,27.6461875 44.2727273,28.09375 C44.2727273,29.6960625 45.5575455,31 47.1363636,31 C48.7151818,31 50,29.6960625 50,28.09375 C50,26.4914375 48.7151818,25.1875 47.1363636,25.1875 Z M31.8636364,3.875 C31.3376818,3.875 30.9090909,3.441 30.9090909,2.90625 C30.9090909,2.3715 31.3376818,1.9375 31.8636364,1.9375 C32.3895909,1.9375 32.8181818,2.3715 32.8181818,2.90625 C32.8181818,3.441 32.3895909,3.875 31.8636364,3.875 Z M47.1363636,29.0625 C46.6104091,29.0625 46.1818182,28.6285 46.1818182,28.09375 C46.1818182,27.559 46.6104091,27.125 47.1363636,27.125 C47.6623182,27.125 48.0909091,27.559 48.0909091,28.09375 C48.0909091,28.6285 47.6623182,29.0625 47.1363636,29.0625 Z" id="Shape"></path>
            <path d="M56,13.4748 L56,9.5 C56,9.2473 55.895,9.006 55.707,8.82835 L48.707,2.17835 C48.52,1.99975 48.265,1.9 48,1.9 L42.816,1.9 C42.402,0.79705 41.302,0 40,0 C38.346,0 37,1.2787 37,2.85 C37,4.4213 38.346,5.7 40,5.7 C41.302,5.7 42.402,4.90295 42.816,3.8 L47.586,3.8 L54,9.8933 L54,13.4748 C52.839,13.8681 52,14.9131 52,16.15 C52,17.7213 53.346,19 55,19 C56.654,19 58,17.7213 58,16.15 C58,14.9131 57.161,13.8681 56,13.4748 Z M40,3.8 C39.449,3.8 39,3.3744 39,2.85 C39,2.3256 39.449,1.9 40,1.9 C40.551,1.9 41,2.3256 41,2.85 C41,3.3744 40.551,3.8 40,3.8 Z M55,17.1 C54.449,17.1 54,16.6744 54,16.15 C54,15.6256 54.449,15.2 55,15.2 C55.551,15.2 56,15.6256 56,16.15 C56,16.6744 55.551,17.1 55,17.1 Z" id="Shape"></path>
            <path d="M42.1081592,52.3659261 L42.1081592,38.4463923 C43.2054269,38.0453423 43.9990541,36.9797506 43.9990541,35.7184775 C43.9990541,34.1162151 42.7258452,32.8123184 41.1612929,32.8123184 C39.9297046,32.8123184 38.8891922,33.6250742 38.4975811,34.7497578 L28.6902786,34.7497578 C28.2986676,33.6250742 27.2581552,32.8123184 26.0265668,32.8123184 C24.7949785,32.8123184 23.7544661,33.6250742 23.3628551,34.7497578 L17.9048945,34.7497578 L14.3908002,31.150964 C14.5686333,30.7721946 14.6755223,30.3537077 14.6755223,29.9061592 C14.6755223,28.3038968 13.4023135,27 11.8377611,27 C10.2732088,27 9,28.3038968 9,29.9061592 C9,31.5084216 10.2732088,32.8123184 11.8377611,32.8123184 C12.2747764,32.8123184 12.683414,32.702853 13.0532688,32.5207337 L16.8445177,36.4033624 C17.0214048,36.5854817 17.2626145,36.6871973 17.5132834,36.6871973 L23.3628551,36.6871973 C23.7544661,37.8118809 24.7949785,38.6246367 26.0265668,38.6246367 C27.2581552,38.6246367 28.2986676,37.8118809 28.6902786,36.6871973 L38.4985271,36.6871973 C38.784195,37.5077029 39.4151239,38.1538389 40.2163185,38.4463923 L40.2163185,52.3659261 C39.1181049,52.766976 38.3244777,53.8325677 38.3244777,55.0938408 C38.3244777,56.6961032 39.5976865,58 41.1622389,58 C42.7267912,58 44,56.6961032 44,55.0938408 C44,53.8325677 43.2063728,52.766976 42.1081592,52.3659261 Z M11.8377611,30.8748789 C11.316559,30.8748789 10.8918408,30.4408925 10.8918408,29.9061592 C10.8918408,29.3714259 11.316559,28.9374395 11.8377611,28.9374395 C12.3589633,28.9374395 12.7836815,29.3714259 12.7836815,29.9061592 C12.7836815,30.4408925 12.3589633,30.8748789 11.8377611,30.8748789 Z M26.0265668,36.6871973 C25.5053647,36.6871973 25.0806465,36.2532108 25.0806465,35.7184775 C25.0806465,35.1837443 25.5053647,34.7497578 26.0265668,34.7497578 C26.547769,34.7497578 26.9724872,35.1837443 26.9724872,35.7184775 C26.9724872,36.2532108 26.547769,36.6871973 26.0265668,36.6871973 Z M41.1612929,56.0615918 C40.6400908,56.0615918 40.2153726,55.6276054 40.2153726,55.0928721 C40.2153726,54.5581388 40.6400908,54.1241524 41.1612929,54.1241524 C41.6824951,54.1241524 42.1072133,54.5581388 42.1072133,55.0928721 C42.1072133,55.6276054 41.6824951,56.0615918 41.1612929,56.0615918 Z M41.1612929,36.6871973 C40.6400908,36.6871973 40.2153726,36.2532108 40.2153726,35.7184775 C40.2153726,35.1837443 40.6400908,34.7497578 41.1612929,34.7497578 C41.6824951,34.7497578 42.1072133,35.1837443 42.1072133,35.7184775 C42.1072133,36.2532108 41.6824951,36.6871973 41.1612929,36.6871973 Z" id="Shape"></path>
            <path d="M38.0606061,19.4076923 L38.0606061,16.3461538 C38.0606061,16.0903846 37.9587879,15.8461538 37.7764848,15.6663462 L26.1323636,4.12019231 C26.3146667,3.74423077 26.4242424,3.32884615 26.4242424,2.88461538 C26.4242424,1.29423077 25.1190303,0 23.5151515,0 C22.2526061,0 21.1859394,0.806730769 20.7844848,1.92307692 L16.7272727,1.92307692 C16.192,1.92307692 15.7575758,2.35288462 15.7575758,2.88461538 L15.7575758,5.37115385 L12.1551515,8.94326923 C11.776,8.7625 11.3570909,8.65384615 10.9090909,8.65384615 C9.30521212,8.65384615 8,9.94807692 8,11.5384615 C8,13.1288462 9.30521212,14.4230769 10.9090909,14.4230769 C12.5129697,14.4230769 13.8181818,13.1288462 13.8181818,11.5384615 C13.8181818,11.0942308 13.7086061,10.6788462 13.526303,10.3028846 L17.4128485,6.44903846 C17.5951515,6.26923077 17.6969697,6.025 17.6969697,5.76923077 L17.6969697,3.84615385 L20.7844848,3.84615385 C21.1859394,4.9625 22.2526061,5.76923077 23.5151515,5.76923077 C23.9631515,5.76923077 24.3820606,5.66057692 24.7612121,5.47980769 L36.1212121,16.7442308 L36.1212121,19.4076923 C34.9953939,19.8057692 34.1818182,20.8634615 34.1818182,22.1153846 C34.1818182,23.7057692 35.4870303,25 37.0909091,25 C38.6947879,25 40,23.7057692 40,22.1153846 C40,20.8634615 39.1864242,19.8057692 38.0606061,19.4076923 Z M10.9090909,12.5 C10.3747879,12.5 9.93939394,12.0692308 9.93939394,11.5384615 C9.93939394,11.0076923 10.3747879,10.5769231 10.9090909,10.5769231 C11.4433939,10.5769231 11.8787879,11.0076923 11.8787879,11.5384615 C11.8787879,12.0692308 11.4433939,12.5 10.9090909,12.5 Z M23.5151515,3.84615385 C22.9808485,3.84615385 22.5454545,3.41538462 22.5454545,2.88461538 C22.5454545,2.35384615 22.9808485,1.92307692 23.5151515,1.92307692 C24.0494545,1.92307692 24.4848485,2.35384615 24.4848485,2.88461538 C24.4848485,3.41538462 24.0494545,3.84615385 23.5151515,3.84615385 Z M37.0909091,23.0769231 C36.5566061,23.0769231 36.1212121,22.6461538 36.1212121,22.1153846 C36.1212121,21.5846154 36.5566061,21.1538462 37.0909091,21.1538462 C37.6252121,21.1538462 38.0606061,21.5846154 38.0606061,22.1153846 C38.0606061,22.6461538 37.6252121,23.0769231 37.0909091,23.0769231 Z" id="Shape"></path>
            <path d="M34.1538462,27.1764706 C32.9186154,27.1764706 31.8750256,27.9907941 31.4822564,29.1176471 L20.3158462,29.1176471 L14.9015128,23.5785 C14.7241026,23.3960294 14.4821795,23.2941176 14.2307692,23.2941176 L4.18764103,23.2941176 L1.8974359,20.9511176 L1.8974359,13.0194706 L9.21679487,5.53138235 C9.58774359,5.71385294 9.99758974,5.82352941 10.4358974,5.82352941 C12.0050769,5.82352941 13.2820513,4.51711765 13.2820513,2.91176471 C13.2820513,1.30641176 12.0050769,0 10.4358974,0 C8.86671795,0 7.58974359,1.30641176 7.58974359,2.91176471 C7.58974359,3.36017647 7.69694872,3.77947059 7.87530769,4.15897059 L0.277974359,11.9314412 C0.0996153846,12.1129412 0,12.3594706 0,12.6176471 L0,21.3529412 C0,21.6111176 0.0996153846,21.8576471 0.277974359,22.0391471 L3.12412821,24.9509118 C3.30153846,25.1333824 3.54346154,25.2352941 3.79487179,25.2352941 L13.838,25.2352941 L19.2523333,30.7744412 C19.4297436,30.9569118 19.6716667,31.0588235 19.9230769,31.0588235 L31.4822564,31.0588235 C31.8750256,32.1856765 32.9186154,33 34.1538462,33 C35.7230256,33 37,31.6935882 37,30.0882353 C37,28.4828824 35.7230256,27.1764706 34.1538462,27.1764706 Z M10.4358974,1.94117647 C10.958641,1.94117647 11.3846154,2.376 11.3846154,2.91176471 C11.3846154,3.44752941 10.958641,3.88235294 10.4358974,3.88235294 C9.91315385,3.88235294 9.48717949,3.44752941 9.48717949,2.91176471 C9.48717949,2.376 9.91315385,1.94117647 10.4358974,1.94117647 Z M34.1538462,31.0588235 C33.6311026,31.0588235 33.2051282,30.624 33.2051282,30.0882353 C33.2051282,29.5524706 33.6311026,29.1176471 34.1538462,29.1176471 C34.6765897,29.1176471 35.1025641,29.5524706 35.1025641,30.0882353 C35.1025641,30.624 34.6765897,31.0588235 34.1538462,31.0588235 Z" id="Shape"></path>
            <path d="M55.2142857,23.3330148 C54.7852857,23.3330148 54.3841429,23.4409902 54.0210714,23.6206307 L50.5714286,20.0708206 L50.5714286,14.5573876 C51.6495,14.1617964 52.4285714,13.1107087 52.4285714,11.866603 C52.4285714,10.2861492 51.1787143,9 49.6428571,9 C48.107,9 46.8571429,10.2861492 46.8571429,11.866603 C46.8571429,13.1107087 47.6362143,14.1617964 48.7142857,14.5573876 L48.7142857,20.4664119 C48.7142857,20.720584 48.8117857,20.9632897 48.9863571,21.1419746 L52.7080714,24.9717562 C52.5335,25.3453701 52.4285714,25.7581609 52.4285714,26.1996178 C52.4285714,27.4437235 53.2076429,28.4948112 54.2857143,28.8904024 L54.2857143,29.6261639 L47.1292143,36.9904669 C46.9546429,37.1691518 46.8571429,37.4118575 46.8571429,37.6660296 L46.8571429,38.7973823 C45.7790714,39.1929735 45,40.2440612 45,41.4881669 C45,42.7322726 45.7790714,43.7833604 46.8571429,44.1789516 L46.8571429,46.4426124 C45.7790714,46.8382036 45,47.8892913 45,49.133397 C45,50.7138508 46.2498571,52 47.7857143,52 C49.3215714,52 50.5714286,50.7138508 50.5714286,49.133397 C50.5714286,47.8892913 49.7923571,46.8382036 48.7142857,46.4426124 L48.7142857,44.1789516 C49.7923571,43.7833604 50.5714286,42.7322726 50.5714286,41.4881669 C50.5714286,40.2440612 49.7923571,39.1929735 48.7142857,38.7973823 L48.7142857,38.0616209 L55.8707857,30.6973178 C56.0453571,30.5186329 56.1428571,30.2759272 56.1428571,30.0217551 L56.1428571,28.8904024 C57.2209286,28.4948112 58,27.4437235 58,26.1996178 C58,24.619164 56.7501429,23.3330148 55.2142857,23.3330148 Z M49.6428571,12.8221373 C49.1312143,12.8221373 48.7142857,12.3940579 48.7142857,11.866603 C48.7142857,11.339148 49.1312143,10.9110686 49.6428571,10.9110686 C50.1545,10.9110686 50.5714286,11.339148 50.5714286,11.866603 C50.5714286,12.3940579 50.1545,12.8221373 49.6428571,12.8221373 Z M47.7857143,50.0879758 C47.2740714,50.0879758 46.8571429,49.6598964 46.8571429,49.1324415 C46.8571429,48.6049866 47.2740714,48.1769072 47.7857143,48.1769072 C48.2973571,48.1769072 48.7142857,48.6049866 48.7142857,49.1324415 C48.7142857,49.6598964 48.2973571,50.0879758 47.7857143,50.0879758 Z M47.7857143,42.4437013 C47.2740714,42.4437013 46.8571429,42.0156219 46.8571429,41.4881669 C46.8571429,40.960712 47.2740714,40.5326326 47.7857143,40.5326326 C48.2973571,40.5326326 48.7142857,40.960712 48.7142857,41.4881669 C48.7142857,42.0156219 48.2973571,42.4437013 47.7857143,42.4437013 Z M55.2142857,27.1551521 C54.7026429,27.1551521 54.2857143,26.7270727 54.2857143,26.1996178 C54.2857143,25.6721628 54.7026429,25.2440835 55.2142857,25.2440835 C55.7259286,25.2440835 56.1428571,25.6721628 56.1428571,26.1996178 C56.1428571,26.7270727 55.7259286,27.1551521 55.2142857,27.1551521 Z" id="Shape"></path>
        </g>
        <g id="mecku" transform="translate(62.000000, -8.000000)">
            <g>
                <use fill="#60ABE5" xlink:href="#path-1"></use>
                <use fill="#4A90E2" xlink:href="#path-1"></use>
            </g>
        </g>
    </g>
</svg>