<?xml version="1.0" encoding="UTF-8"?>
<svg width="156px" height="155px" viewBox="0 0 156 155" version="1.1" xmlns="http://www.w3.org/2000/svg" xmlns:xlink="http://www.w3.org/1999/xlink">
    <!-- Generator: Sketch 52.6 (67491) - http://www.bohemiancoding.com/sketch -->
    <title>formulaTransformation</title>
    <desc>Created with Sketch.</desc>
    <g id="Page-1" stroke="none" stroke-width="1" fill="none" fill-rule="evenodd">
        <g id="formulaTransformation">
            <rect id="Rectangle" fill="#f48fb1" transform="translate(78.000000, 77.074639) rotate(45.000000) translate(-78.000000, -77.074639) " x="23.4999999" y="22.5746391" width="109" height="109"></rect>
            <g id="formula" transform="translate(44.000000, 39.000000)" fill="#FFFFFF">
                <path d="M48,15.1004755 C48,14.4923482 47.5075785,14 46.9000674,14 L30.7011116,14 C30.216706,14 29.7895588,14.3169598 29.6492758,14.7806499 L24.1696531,32.8513744 L20.806871,25.7280881 C20.625362,25.343495 20.2382956,25.0981807 19.8128663,25.0981807 L15.0993601,25.0981807 C14.4924215,25.0981807 14,25.5905287 14,26.1986562 C14,26.8067835 14.4924215,27.2991316 15.0993601,27.2991316 L19.1166049,27.2991316 L23.400101,36.3717496 C23.828966,37.280215 25.155069,37.1804844 25.4459414,36.2210073 L31.5164703,16.2003778 L46.9000674,16.2003778 C47.5075785,16.200951 48,15.7080297 48,15.1004755 Z" id="Path"></path>
                <path d="M47.6685848,23.3314153 C47.2266978,22.8895282 46.5108409,22.8895282 46.068954,23.3314153 L40.5,28.89978 L34.9316351,23.3314153 C34.4897482,22.8895282 33.7733022,22.8895282 33.3314152,23.3314153 C32.8895283,23.7733022 32.8895283,24.4891591 33.3314152,24.9310459 L38.9003692,30.5000001 L33.3314152,36.0683648 C32.8895283,36.5108409 32.8895283,37.2266978 33.3314152,37.6685847 C33.7733022,38.1104718 34.4897482,38.1104718 34.9316351,37.6685847 L40.5,32.0996307 L46.068954,37.6685847 C46.5108409,38.1104718 47.227287,38.1104718 47.6685848,37.6685847 C48.1104717,37.2266978 48.1104717,36.5102518 47.6685848,36.0683648 L42.10022,30.5000001 L47.6685848,24.9310459 C48.1104717,24.4891591 48.1104717,23.7733022 47.6685848,23.3314153 Z" id="Path"></path>
                <path d="M3.88356249,2.22654551 L31.4243731,2.22654551 C32.0337848,2.22654551 32.5282132,1.72847188 32.5282132,1.11327276 C32.5282132,0.49807363 32.0337848,0 31.4243731,0 L3.88356249,0 C1.74257262,0 0,1.75688364 0,3.91674872 L0,47.4115035 C0,49.5713686 1.74257262,51.328832 3.88356249,51.328832 L7.71423249,51.328832 C8.18566435,52.4125335 9.25845887,53.1726901 10.5048783,53.1726901 L19.6431796,53.1726901 L15.484232,69.16207 L15.2140212,69.16207 C13.5490624,69.16207 12.1939836,70.5281485 12.1939836,72.2079147 L12.1939836,72.9535756 C12.1939836,74.6333418 13.5490624,75.9994202 15.2140212,75.9994202 L22.6591927,75.9994202 C24.3241515,75.9994202 25.6792302,74.6333418 25.6792302,72.9535756 L25.6792302,72.2079147 C25.6792302,71.0842051 25.0709684,70.1031334 24.1712237,69.5754885 L28.9177362,51.328832 L39.0828387,51.328832 L43.8287763,69.5754885 C42.9290316,70.1031334 42.3213445,71.0842051 42.3213445,72.2079147 L42.3213445,72.9541554 C42.3213445,74.6333418 43.6758483,76 45.3408072,76 L52.7859788,76 C54.4509376,76 55.8060163,74.6333418 55.8060163,72.9541554 L55.8060163,72.2079147 C55.8060163,70.5287283 54.4515125,69.16207 52.7859788,69.16207 L52.5163427,69.16207 L47.8773397,51.328832 L64.1164375,51.328832 C66.2580023,51.328832 68,49.5713686 68,47.4120833 L68,3.91674872 C67.999425,1.75688364 66.2574274,4.21881531e-15 64.1164375,4.21881531e-15 L36.5756269,4.21881531e-15 C35.9656403,4.21881531e-15 35.4717868,0.49807363 35.4717868,1.11327276 C35.4717868,1.72847188 35.9656403,2.22654551 36.5756269,2.22654551 L64.1158625,2.22654551 C65.0397537,2.22654551 65.7917448,2.98496258 65.7917448,3.91674872 L65.7917448,47.4115035 C65.7917448,48.3438695 65.0403286,49.1017067 64.1158625,49.1017067 C63.6110857,49.1017067 29.0384686,49.1017067 28.0657095,49.1017067 L23.3048242,49.1017067 L23.3048242,46.7174476 L61.3683356,46.7174476 C62.504371,46.7174476 63.4276872,45.7862412 63.4276872,44.640498 L63.4276872,28.6093703 C63.4276872,27.9941712 62.9338337,27.4960976 62.3238471,27.4960976 C61.7138605,27.4960976 61.220007,27.9941712 61.220007,28.6093703 L61.220007,44.4909021 L22.9995434,44.4909021 C22.6281473,43.8733835 21.9497455,43.4663432 21.1977545,43.4663432 L9.56603936,43.4663432 C8.81692283,43.4663432 8.1373712,43.8722239 7.76597507,44.4909021 L6.77999285,44.4909021 L6.77999285,6.83735018 L61.220007,6.83735018 L61.220007,23.4140975 C61.220007,24.0287168 61.7144354,24.5273702 62.3238471,24.5273702 C62.9338337,24.5273702 63.4282622,24.0287168 63.4282622,23.4140975 L63.4282622,6.68775423 C63.4282622,5.54259081 62.504371,4.61080467 61.3689105,4.61080467 L6.63108953,4.61080467 C5.49562897,4.61080467 4.57173777,5.54259081 4.57173777,6.68775423 L4.57173777,44.640498 C4.57173777,45.7862412 5.49562897,46.7174476 6.63108953,46.7174476 L7.45839458,46.7174476 L7.45839458,49.1017067 L3.88356249,49.1017067 C2.95967128,49.1017067 2.20768021,48.3438695 2.20768021,47.4115035 L2.20768021,3.91674872 C2.20768021,2.98496258 2.95967128,2.22654551 3.88356249,2.22654551 Z M23.4709751,72.9535756 C23.4709751,73.4052628 23.106478,73.7728747 22.6591927,73.7728747 L15.2140212,73.7728747 C14.7661611,73.7728747 14.4016638,73.4052628 14.4016638,72.9535756 L14.4016638,72.2073349 C14.4016638,71.7562274 14.7661611,71.3886155 15.2140212,71.3886155 L22.6591927,71.3886155 C23.1047532,71.3886155 23.4709751,71.7539082 23.4709751,72.2073349 L23.4709751,72.9535756 Z M53.5983361,72.2073349 L53.5983361,72.9535756 C53.5983361,73.4052628 53.2338388,73.7728747 52.7859788,73.7728747 L45.3408072,73.7728747 C44.8929471,73.7728747 44.5290248,73.4052628 44.5290248,72.9535756 L44.5290248,72.2073349 C44.5290248,71.754488 44.8952467,71.3886155 45.3408072,71.3886155 L52.7859788,71.3886155 C53.2338388,71.3886155 53.5983361,71.7562274 53.5983361,72.2073349 Z M45.5943454,51.3282523 L50.2333485,69.1614902 L46.0036861,69.1614902 L41.3652581,51.3282523 L45.5943454,51.3282523 Z M26.6347419,51.3282523 L21.9963137,69.1614902 L17.7666515,69.1614902 L22.0871505,52.5516926 C22.4964912,52.2391645 22.8339674,51.8234266 23.0489863,51.3282523 L26.6347419,51.3282523 Z M21.0965691,45.6928887 L21.0965691,50.0891564 L21.0931195,50.1477193 L21.0931195,50.1482991 L21.0931195,50.1500386 C21.0672483,50.5860704 20.7010264,50.9461445 20.2583405,50.9461445 L10.5048783,50.9461445 C10.0708162,50.9461445 9.71206813,50.6110031 9.67067413,50.1836686 C9.67009925,50.1732318 9.67067413,50.1627948 9.67009925,50.1517781 L9.66664982,45.6928887 L21.0965691,45.6928887 Z" id="Shape" fill-rule="nonzero"></path>
            </g>
        </g>
    </g>
</svg>