<?xml version="1.0" encoding="UTF-8"?>
<svg width="156px" height="155px" viewBox="0 0 156 155" version="1.1" xmlns="http://www.w3.org/2000/svg" xmlns:xlink="http://www.w3.org/1999/xlink">
    <!-- Generator: Sketch 52.6 (67491) - http://www.bohemiancoding.com/sketch -->
    <title>partitionTransformation</title>
    <desc>Created with Sketch.</desc>
    <g id="Page-1" stroke="none" stroke-width="1" fill="none" fill-rule="evenodd">
        <g id="partitionTransformation">
            <rect id="Rectangle" fill="#f48fb1" transform="translate(78.000000, 77.074639) rotate(45.000000) translate(-78.000000, -77.074639) " x="23.4999999" y="22.5746391" width="109" height="109"></rect>
            <g id="partition" transform="translate(43.000000, 44.000000)" fill="#FFFFFF">
                <path d="M69.0432422,6.0197154 L46.5707813,0.0436748866 C46.5668164,0.0425904287 46.5614844,0.0432682149 46.5572461,0.0424548715 C46.3445117,-0.0116324635 46.1189258,-0.0140724937 45.9014063,0.0436748866 L23.7637695,5.93092541 L1.62613281,0.0436748866 C1.23853516,-0.0593486087 0.824003906,0.0221212869 0.505449219,0.264497615 C0.186894531,0.506873943 0,0.882367472 0,1.28049906 L0,54.5508306 L0,59.7432148 C0,60.4504168 0.578046875,61.0238239 1.29158203,61.0238239 C2.00511719,61.0238239 2.58316406,60.4504168 2.58316406,59.7432148 L2.58316406,56.2202179 L22.4721875,61.5093899 L22.4721875,65.7193908 C22.4721875,66.4265929 23.0502344,67 23.7637695,67 C24.4773047,67 25.0553516,66.4265929 25.0553516,65.7193908 L25.0553516,61.5093899 L44.944375,56.2202179 L44.944375,59.7432148 C44.944375,60.4504168 45.5224219,61.0238239 46.235957,61.0238239 C46.9494922,61.0238239 47.5275391,60.4504168 47.5275391,59.7432148 L47.5275391,56.2202179 L67.4168359,61.5093899 L67.4168359,65.7193908 C67.4168359,66.4265929 67.9948828,67 68.708418,67 C69.4219531,67 70,66.4265929 70,65.7193908 L70,60.5270067 L70,7.25667512 C70,6.67716796 69.6074805,6.16991281 69.0432422,6.0197154 Z M2.58316406,2.94988635 L22.4721875,8.23905837 L22.4721875,31.8807816 L8.67904297,28.212603 C7.31951172,26.7888454 6.57152344,24.935778 6.57152344,22.967487 C6.57152344,20.9276218 7.37269531,19.0098937 8.82765625,17.5675648 C9.59806641,16.8036998 10.5617969,16.2670287 11.614668,16.0159767 C12.3081055,15.8504613 12.7352148,15.1589839 12.568418,14.4714376 C12.4014844,13.7838913 11.704082,13.3604105 11.0106445,13.5257904 C9.49484375,13.8873215 8.10837891,14.6586421 7.00109375,15.7563846 C5.05859375,17.6823817 3.98863281,20.2434645 3.98863281,22.9673515 C3.98863281,24.457261 4.31087891,25.897421 4.91873047,27.2125973 L2.58316406,26.5912029 L2.58316406,2.94988635 Z M44.9445117,53.5685829 L25.0554883,58.8576194 L25.0554883,46.7381252 C25.0554883,46.0309231 24.4774414,45.457516 23.7639063,45.457516 C23.0503711,45.457516 22.4723242,46.0309231 22.4723242,46.7381252 L22.4723242,58.8576194 L2.58316406,53.5685829 L2.58316406,29.2432446 L22.4721875,34.5324166 L22.4721875,42.440961 C22.4721875,43.1481631 23.0502344,43.7215701 23.7637695,43.7215701 C24.4773047,43.7215701 25.0553516,43.1481631 25.0553516,42.440961 L25.0553516,34.5324166 L44.9445117,29.2432446 L44.944375,53.5685829 L44.9445117,53.5685829 Z M44.9445117,26.5916096 L42.6092187,27.2125973 C43.2170703,25.8975566 43.5393164,24.457261 43.5393164,22.9673515 C43.5393164,20.2434645 42.4693555,17.6823817 40.5268555,15.7563846 C37.2178516,12.4754929 31.8338672,12.4754929 28.525,15.7563846 C25.7772266,18.4808138 25.7772266,22.9139419 28.525,25.6383711 C29.6388477,26.7426203 31.119375,27.3505945 32.6945117,27.3505945 C34.2695117,27.3505945 35.7500391,26.7426203 36.8638867,25.6383711 C38.8036523,23.7150852 38.8036523,20.5854754 36.8638867,18.6620538 C36.3592578,18.1619832 35.541543,18.1617121 35.0374609,18.6620538 C34.532832,19.1621245 34.532832,19.9728923 35.0373242,20.4729629 C35.9700195,21.3978699 35.9701562,22.9025551 35.0373242,23.8274621 C34.4115625,24.4479075 33.5796289,24.7896473 32.6946484,24.7896473 C31.8095312,24.7896473 30.9775977,24.4479075 30.3518359,23.8274621 C28.6111328,22.1015474 28.6111328,19.2934794 30.3518359,17.5675648 C31.4669141,16.46196 32.9492187,15.8530369 34.5259961,15.8530369 C36.1027734,15.8530369 37.5853516,16.46196 38.7001562,17.5675648 C40.1549805,19.0100292 40.9562891,20.9277574 40.9562891,22.967487 C40.9562891,24.9359136 40.2084375,26.7891165 38.8487695,28.212603 L25.055625,31.8807816 L25.055625,8.23892282 L44.9445117,2.94988635 L44.9445117,26.5916096 Z M67.4168359,31.8806461 L63.9448633,30.9573658 C63.2568945,30.7744991 62.5475977,31.1792729 62.3627539,31.8624814 C62.1779102,32.5456898 62.5868359,33.2478763 63.2757617,33.4311497 L67.4166992,34.532281 L67.4168359,58.8576194 L47.5275391,53.5684474 L47.5275391,29.2432446 L59.3829687,32.3960346 C60.072168,32.5789013 60.7802344,32.1738563 60.9652148,31.490919 C61.1501953,30.8079817 60.7411328,30.1055241 60.0523437,29.9222507 L53.6239648,28.2127385 C50.7721484,25.2245149 50.82,20.4945165 53.7723047,17.5672936 C54.8873828,16.4616889 56.3696875,15.8527658 57.9464648,15.8527658 C59.5233789,15.8527658 61.005957,16.4616889 62.1208984,17.5672936 C62.964043,18.4032751 63.4284766,19.5148444 63.4284766,20.6973101 C63.4284766,21.8797758 62.9641797,22.9913451 62.1207617,23.8273265 C61.495,24.447772 60.6630664,24.7895118 59.7779492,24.7895118 C58.892832,24.7895118 58.0610352,24.4479075 57.4352734,23.8273265 C56.983418,23.3793099 56.7347266,22.7836714 56.7347266,22.1502125 C56.7347266,21.5167535 56.9835547,20.9209795 57.4352734,20.4729629 C57.9399023,19.9728923 57.9399023,19.1621245 57.4354102,18.6620538 C56.9307812,18.1619832 56.1130664,18.1617121 55.6089844,18.6620538 C54.669043,19.5938742 54.1515625,20.8325962 54.1515625,22.1502125 C54.1515625,23.4680999 54.669043,24.7068219 55.6088477,25.6383711 C56.7226953,26.7426203 58.2032227,27.3505945 59.7782227,27.3505945 C61.3532227,27.3505945 62.83375,26.7426203 63.9474609,25.6383711 C65.2786914,24.3187215 66.0117773,22.563662 66.0117773,20.6973101 C66.0117773,18.8309581 65.2786914,17.0760342 63.9477344,15.756249 C62.3448437,14.1669761 60.2136719,13.291683 57.9467383,13.291683 C55.6799414,13.291683 53.5489062,14.1669761 51.9457422,15.756249 C48.8263672,18.8491228 48.1345703,23.4504774 49.8681641,27.2136817 L47.5279492,26.5913385 L47.5279492,2.94988635 L67.4168359,8.23892282 L67.4168359,31.8806461 Z" id="Shape" fill-rule="nonzero"></path>
                <path d="M18.9137971,16.1959912 C17.9167986,15.2020537 16.6810684,14.4621899 15.3396044,14.0563067 C14.6490126,13.8477758 13.9187015,14.2364079 13.7090329,14.9254846 C13.4993642,15.6145612 13.8896385,16.3425563 14.580507,16.5515012 C15.5119063,16.8333147 16.3709249,17.3478105 17.0645613,18.0396474 C18.8266082,19.7967721 18.8266082,22.6556191 17.0645613,24.4127439 C15.7571425,25.7169247 13.6290405,25.7165106 12.3216216,24.4127439 C11.37749,23.4712496 11.37749,21.9392168 12.3216216,20.9975845 C12.8321613,20.488609 12.8321613,19.6631799 12.3214832,19.1540663 C11.811082,18.6446768 10.9832023,18.6449528 10.4726626,19.1540663 C8.50911245,21.1122696 8.50911245,24.2984728 10.4726626,26.2565381 C11.6001678,27.3807557 13.0988487,28 14.6932991,28 C16.287611,28 17.786292,27.3807557 18.9137971,26.2565381 C21.695401,23.4829804 21.695401,18.9696869 18.9137971,16.1959912 Z" id="Path"></path>
            </g>
        </g>
    </g>
</svg>