<?xml version="1.0" encoding="UTF-8"?>
<svg width="156px" height="155px" viewBox="0 0 156 155" version="1.1" xmlns="http://www.w3.org/2000/svg" xmlns:xlink="http://www.w3.org/1999/xlink">
    <!-- Generator: Sketch 52.6 (67491) - http://www.bohemiancoding.com/sketch -->
    <title>sortTransformation</title>
    <desc>Created with Sketch.</desc>
    <g id="Page-1" stroke="none" stroke-width="1" fill="none" fill-rule="evenodd">
        <g id="sortTransformation">
            <rect id="Rectangle" fill="#f48fb1" transform="translate(78.000000, 77.074639) rotate(45.000000) translate(-78.000000, -77.074639) " x="23.4999999" y="22.5746391" width="109" height="109"></rect>
            <g id="sort" transform="translate(48.000000, 44.000000)" fill="#FFFFFF">
                <path d="M62.6170924,45.9071093 C62.1069845,45.4062563 61.2790938,45.4062563 60.7692037,45.9071093 L47.8069745,58.6230918 L47.8069745,1.28204693 C47.8069745,0.574143352 47.2217226,0 46.5001225,0 C45.7785224,0 45.1932705,0.574143352 45.1932705,1.28204693 L45.1932705,58.6228781 L32.2308236,45.9066819 C31.7207157,45.4062563 30.8930428,45.4060426 30.3827171,45.9068956 C29.8723914,46.4075349 29.8723914,47.2192843 30.3829349,47.7199236 L45.5761782,62.6245739 C45.8312321,62.8747867 46.1657862,63 46.5001225,63 C46.8344588,63 47.1690129,62.8747867 47.4240669,62.6243602 L62.6170924,47.7197099 C63.1276359,47.2192843 63.1276359,46.4075349 62.6170924,45.9071093 Z" id="Path"></path>
                <path d="M1.28033643,3 L39.7196636,3 C40.4266227,3 41,2.32825 41,1.5 C41,0.67175 40.4266227,0 39.7196636,0 L1.28033643,0 C0.57337733,0 0,0.67175 0,1.5 C0,2.32825 0.57337733,3 1.28033643,3 Z" id="Path"></path>
                <path d="M1.28033643,18 L39.7196636,18 C40.4266227,18 41,17.32825 41,16.5 C41,15.67175 40.4266227,15 39.7196636,15 L1.28033643,15 C0.57337733,15 0,15.67175 0,16.5 C0,17.32825 0.57337733,18 1.28033643,18 Z" id="Path"></path>
                <path d="M1.28033643,33 L39.7196636,33 C40.4266227,33 41,32.32825 41,31.5 C41,30.67175 40.4266227,30 39.7196636,30 L1.28033643,30 C0.57337733,30 0,30.67175 0,31.5 C0,32.32825 0.57337733,33 1.28033643,33 Z" id="Path"></path>
                <path d="M26.7025224,45 L1.29747764,45 C0.581053737,45 0,45.67175 0,46.5 C0,47.32825 0.581053737,48 1.29747764,48 L26.7025224,48 C27.4189463,48 28,47.32825 28,46.5 C28,45.67175 27.4191625,45 26.7025224,45 Z" id="Path"></path>
                <path d="M26.7025224,60 L1.29747764,60 C0.581053737,60 0,60.67175 0,61.5 C0,62.32825 0.581053737,63 1.29747764,63 L26.7025224,63 C27.4189463,63 28,62.32825 28,61.5 C28,60.67175 27.4191625,60 26.7025224,60 Z" id="Path"></path>
            </g>
        </g>
    </g>
</svg>