<?xml version="1.0" encoding="UTF-8"?>
<svg width="156px" height="155px" viewBox="0 0 156 155" version="1.1" xmlns="http://www.w3.org/2000/svg" xmlns:xlink="http://www.w3.org/1999/xlink">
    <!-- Generator: Sketch 52.6 (67491) - http://www.bohemiancoding.com/sketch -->
    <title>topTransformation</title>
    <desc>Created with Sketch.</desc>
    <g id="Page-1" stroke="none" stroke-width="1" fill="none" fill-rule="evenodd">
        <g id="topTransformation">
            <rect id="Rectangle" fill="#f48fb1" transform="translate(78.000000, 77.074639) rotate(45.000000) translate(-78.000000, -77.074639) " x="23.4999999" y="22.5746391" width="109" height="109"></rect>
            <g id="top" transform="translate(52.000000, 38.000000)" fill="#FFFFFF">
                <path d="M15.1366736,13.8219944 C15.4275893,13.8219944 15.718505,13.7092909 15.9401009,13.4850339 L25.3869065,3.92478515 L25.3869065,44.8499641 C25.3869065,45.4859339 25.8948726,46 26.523296,46 C27.1517194,46 27.6596854,45.4859339 27.6596854,44.8499641 L27.6596854,3.92478515 L37.0598991,13.4378824 C37.5042274,13.8875465 38.2224255,13.8875465 38.6667538,13.4378824 C39.1110821,12.9882184 39.1110821,12.2613957 38.6667538,11.8117316 L27.3278597,0.336673021 C27.2233119,0.229719679 27.0971727,0.145767055 26.9562604,0.0871152224 C26.6789813,-0.0290384075 26.3664742,-0.0290384075 26.0880588,0.0871152224 C25.9482829,0.145767055 25.8221437,0.230869715 25.7175959,0.336673021 L14.3332462,11.8588831 C13.8889179,12.3085471 13.8889179,13.0353699 14.3332462,13.4850339 C14.5548422,13.710441 14.8457579,13.8219944 15.1366736,13.8219944 Z" id="Path"></path>
                <path d="M34.2727273,19 C33.6191818,19 33.0909091,19.5093721 33.0909091,20.1395349 C33.0909091,20.7696977 33.6191818,21.2790698 34.2727273,21.2790698 L49.6363636,21.2790698 L49.6363636,65.7209302 L2.36363636,65.7209302 L2.36363636,21.2790698 L17.7272727,21.2790698 C18.3808182,21.2790698 18.9090909,20.7696977 18.9090909,20.1395349 C18.9090909,19.5093721 18.3808182,19 17.7272727,19 L0,19 L0,68 L52,68 L52,19 L34.2727273,19 Z" id="Path"></path>
            </g>
        </g>
    </g>
</svg>