<?xml version="1.0" encoding="UTF-8"?>
<svg width="156px" height="155px" viewBox="0 0 156 155" version="1.1" xmlns="http://www.w3.org/2000/svg" xmlns:xlink="http://www.w3.org/1999/xlink">
    <!-- Generator: Sketch 52.6 (67491) - http://www.bohemiancoding.com/sketch -->
    <title>typeConversionTransformation</title>
    <desc>Created with Sketch.</desc>
    <g id="Page-1" stroke="none" stroke-width="1" fill="none" fill-rule="evenodd">
        <g id="typeConversionTransformation">
            <rect id="Rectangle" fill="#f48fb1" transform="translate(78.000000, 77.074639) rotate(45.000000) translate(-78.000000, -77.074639) " x="23.4999999" y="22.5746391" width="109" height="109"></rect>
            <g id="typeConversion" transform="translate(45.000000, 44.000000)" fill="#FFFFFF">
                <path d="M64.9560547,15.7861328 L59.2257977,15.7861328 C59.3334579,15.3721714 59.3920898,14.939003 59.3920898,14.4921875 C59.3920898,11.6384315 57.0700646,9.31640625 54.2163086,9.31640625 C51.3625526,9.31640625 49.0405273,11.6384315 49.0405273,14.4921875 C49.0405273,14.939003 49.0986538,15.3721714 49.2063141,15.7861328 L44.1948032,15.7861328 C44.6502113,14.5336341 44.8999023,13.1830787 44.8999023,11.7749023 C44.8999023,5.28192514 39.6179772,0 33.125,0 C26.6320228,0 21.3500977,5.28192514 21.3500977,11.7749023 C21.3500977,13.1830787 21.5997887,14.5336341 22.0551968,15.7861328 L1.29394531,15.7861328 C0.579242642,15.7861328 0,16.3653755 0,17.0800781 L0,30.0195312 C0,30.4274273 0.233516758,30.8641339 0.573682817,31.0936069 C0.577220981,31.0961341 0.580759016,31.0991669 0.584802595,31.1016941 L26.6552734,48.1868267 L26.6552734,59.2626953 C26.6552734,59.707489 26.8837357,60.1214505 27.2607995,60.3585052 L36.3184167,66.0518646 C36.5281772,66.1837864 36.7672539,66.25 37.0068359,66.25 C37.2221565,66.25 37.4374771,66.1964226 37.6325799,66.0887623 C38.0450249,65.8608056 38.3007812,65.4271317 38.3007812,64.9560547 L38.3007812,48.2050228 L65.6419468,31.1168576 C66.0119342,30.8853626 66.25,30.4562378 66.25,30.0195312 L66.25,17.0800781 C66.25,16.3653755 65.6707574,15.7861328 64.9560547,15.7861328 Z M51.628418,14.4921875 C51.628418,13.0653095 52.7894306,11.9042969 54.2163086,11.9042969 C55.6431866,11.9042969 56.8041992,13.0653095 56.8041992,14.4921875 C56.8041992,14.9637699 56.6763211,15.405531 56.4544296,15.7861328 L51.9781876,15.7861328 C51.7562961,15.405531 51.628418,14.9637699 51.628418,14.4921875 Z M23.9379883,11.7749023 C23.9379883,6.70930856 28.0594062,2.58789062 33.125,2.58789062 C38.1905938,2.58789062 42.3120117,6.70930856 42.3120117,11.7749023 C42.3120117,13.2129001 41.9774055,14.5735645 41.3855267,15.7861328 L24.8649787,15.7861328 C24.2725945,14.5735645 23.9379883,13.2129001 23.9379883,11.7749023 Z M35.7128906,62.614317 L29.2431641,58.5474872 L29.2431641,53.9575195 L35.7128906,53.9575195 L35.7128906,62.614317 Z M35.7128906,51.3696289 L29.2431641,51.3696289 L29.2431641,48.7817383 L35.7128906,48.7817383 L35.7128906,51.3696289 Z M63.6621094,28.7255859 L38.3007813,28.7255859 C37.587595,28.7255859 37.0068359,29.306345 37.0068359,30.0195313 C37.0068359,30.7327175 37.587595,31.3134766 38.3007813,31.3134766 L60.4444312,31.3134766 L36.6358375,46.1938477 L28.3353806,46.1938477 L5.62916752,31.3134766 L27.9492188,31.3134766 C28.662405,31.3134766 29.2431641,30.7327175 29.2431641,30.0195313 C29.2431641,29.306345 28.662405,28.7255859 27.9492188,28.7255859 L2.58789063,28.7255859 L2.58789063,24.84375 L63.6621094,24.84375 L63.6621094,28.7255859 Z M63.6621094,22.2558594 L2.58789063,22.2558594 L2.58789063,18.3740234 L63.6621094,18.3740234 L63.6621094,22.2558594 Z" id="Shape" fill-rule="nonzero"></path>
                <path d="M33.125,31.3333333 C33.8369304,31.3333333 34.4166667,30.753597 34.4166667,30.0416667 C34.4166667,29.3297363 33.8369304,28.75 33.125,28.75 C32.4130696,28.75 31.8333333,29.3297363 31.8333333,30.0416667 C31.8333333,30.753597 32.4130696,31.3333333 33.125,31.3333333 Z" id="Path"></path>
                <path d="M11.75,11.6666667 C14.9664352,11.6666667 17.5833333,9.04976852 17.5833333,5.83333333 C17.5833333,2.61689815 14.9664352,0 11.75,0 C8.53356481,0 5.91666667,2.61689815 5.91666667,5.83333333 C5.91666667,9.04976852 8.53356481,11.6666667 11.75,11.6666667 Z M11.75,2.59259259 C13.5369647,2.59259259 14.9907407,4.04636867 14.9907407,5.83333333 C14.9907407,7.620298 13.5369647,9.07407407 11.75,9.07407407 C9.96303533,9.07407407 8.50925926,7.620298 8.50925926,5.83333333 C8.50925926,4.04636867 9.96303533,2.59259259 11.75,2.59259259 Z" id="Shape" fill-rule="nonzero"></path>
            </g>
        </g>
    </g>
</svg>